<?xml version="1.0" encoding="utf-8"?>
<!-- Designed by Vexels.com - 2016 All Rights Reserved - https://vexels.com/terms-and-conditions/  -->

<svg version="1.1" id="Layer_1" xmlns="http://www.w3.org/2000/svg" xmlns:xlink="http://www.w3.org/1999/xlink" x="0px" y="0px"
	 width="1200px" height="1200px" viewBox="0 0 1200 1200" enable-background="new 0 0 1200 1200" xml:space="preserve">
<g>
	<g>
		<path fill="#C9C8C8" d="M923.391,795.566c0.076,2.549,0.019,4.061,0.019,4.061C923.705,798.671,923.661,797.252,923.391,795.566z"
			/>
		<path fill="#C9C8C8" d="M904.253,865.049c2.161-6.909,7.674-18.149,10.567-32.03c2.91-13.913,4.898-49.521-2.332-66.609
			c0,0,9.41,19.441,10.902,29.157c-0.316-12.663-3.812-51.952-33.9-70.9c0,0-2.741-2.133,0.976-7.21
			c3.704-5.083,33.578-47.826-3.439-89.961c0,0-34.398-32.001-61.037-3.414c0,0,22.361-17.398,33.852,3.3c0,0,2.323-4.2,1.122-5.737
			c0,0,17.196,21.016-27.556,43.628c0,0,5.346,1.64,9.439,0.791c0,0-42.454,10.451-68.129,47.992c0,0-46.388,9.72-52.186,20.201
			c0,0,1.693,16.196-11.225,21.374c0,0-36.403,6.785-31.8,9.587c0,0,7.069,1.676,8.935,4.626l-27.664-0.863
			c0,0-21.933-1.971-35.84,1.847c4.48-1.611,10.885-4.468,6.359-6.353c0,0-11.71-3.633-18.488-4.693
			c-6.789-1.065-13.044-2.315-16.441-3.928c-3.39-1.621-4.79-3.03-8.141-4.267c-3.346-1.252-5.174-2.545-9.388-2.749
			c-4.2-0.203-6.881-0.523-12.582-0.968c-5.695-0.437-9.153-0.344-10.049-1.111c-0.896-0.782-1.294-1.569,1.782-1.82
			c3.064-0.247,7.272-0.679,10.955-0.281c3.688,0.388,9.041,1.778,10.112,1.305c1.09-0.466,1.813-2.001,0.078-3.257
			c0,0-6.572-12.5-27.55-20.831c0,0-25.146-9.996-48.473-1.965c0,0,6.869-7.521,25.735-6.376c0,0,1.522-4.232-20.934-6.692
			c-22.49-2.454-40.419-2.806-54.935-10.331c-14.541-7.543-20.097-19.386-21.541-23.858c-1.44-4.476-3.54-13.215-3.413-15.589
			c0.116-2.383-5.309,8.663,0.943,20.911c6.224,12.226-13.808-12.612-10.354-18.349c3.46-5.743,9.363-30.803,30.653-22.359
			c0,0,10.487,6.679,9.313,3.35c0,0-12.056-25.203-34.385-16.57c-22.089,8.53-26.909,30.367-26.882,40.963
			c0.004,0.118,0,0.243,0,0.357c0.133,10.459-3.601,0.729-2.996-4.542c0.607-5.273,0.594-13.502-2.733-6.544
			c-3.304,6.966-4.581,29.393-2.212,38.526c2.38,9.115,12.745,23.62,19.743,31.864c0,0,13.304,18.617,24.819,26.54
			c0,0-80.558-42.329-72.593,78.618c0,0,2.88-11.803,4.449-13.86c0,0,4.782,64.454,33.63,90.571c0,0-2.062-6.709-0.658-9.136
			c0,0,16.658,37.927,37.537,61.334c0,0-5.68-12.401-4.358-15.758c0,0,11.436,27.029,28.981,43.126c0,0,42.968,40.004,45.851,53.329
			c2.878,13.293,4.988,44.819-30.364,50.048c0,0-35.469,1.014-43.732-23.675c0,0-6.675-31.952,19.711-35.652
			c0,0,19.31,1.406,14.223,18.054c0,0,10.658-2.762,9.587-12.876c0,0-5.307-26.095-43.036-21.044c0,0,4.331-3.829,6.06-4.145
			c0,0-17.061,2.979-25.332,10.907c0,0,11.825-10.774,15.568-11.917c0,0-25.793,3.42-33.263,22.401
			c-7.472,18.965-9.024,34.818-4.307,44.878c4.712,10.038,2.941,28.929,57.469,47.668c0,0-5.218,1.484-6.599,0.934
			c0,0,40.887,12.813,63.187,16.544c22.251,3.722,48.307,9.222,91.686,8.345c43.208-0.873,74.855-3.276,105.295-16.684
			c30.409-13.398,48.95-16.275,83.162-46.314c34.24-30.061,24.227-38.393,34.754-43.276c10.51-4.871,44.55-39.576,55.477-61.777
			c10.946-22.226,28.096-59.797,28.051-82.875C904.31,875.822,902.101,871.973,904.253,865.049z M673.827,857.591
			c-58.376-0.763-78.045-40.738-78.045-40.738c2.729,0.835,23.401-5.812,23.401-5.812c-3.192,7.185-9.123,10.322-9.123,10.322
			c6.226,1.161,31.764-12.81,31.764-12.81c-0.592,8.634,12.359,12.114,12.359,12.114c-3.241-5.184,2.374-12.629,2.374-12.629
			c1.583,8.341,25.895,12.914,25.895,12.914c-3.483-1.655-7.599-7.023-9.416-9.574c-0.247-0.27-0.386-0.516-0.548-0.786
			c-0.234-0.344-0.398-0.584-0.398-0.584c0.074,0.194,0.272,0.384,0.398,0.584c0.148,0.221,0.312,0.457,0.548,0.786
			c6.201,6.584,34.558,11.315,34.558,11.315c-3.677-2.056-10.455-11.6-10.455-11.6c1.82,3.466,35.359,5.448,35.359,5.448
			C709.61,856.9,673.827,857.591,673.827,857.591z"/>
	</g>
	<g>
		<g>
			<g>
				<path fill="#C9C8C8" d="M407.655,511.431c0,0,207.091-37.316,471.555,14.646c0,0,15.285-34.334,15.285-85.787
					c0,0-17.466-29.294-2.918-67.657c0,0-18.84-27.788-54.83-17.181c0,0-351.564-37.141-436.997,12.528
					c0,0-66.649-34.172-39.232,37.421c48.152,125.728,0,18.716,0,18.716S335.219,530.166,407.655,511.431z"/>
			</g>
		</g>
		<path fill="#D6352B" d="M870.711,362.75c0,0-49.066-8.495-90.588-8.495c-41.524,0-259.994-15.028-365.186,14.153
			c-35.986,13.272-4.499-20.917-4.499-20.917S566.849,118.623,435.73,115.6c-88.466,4.537-112.16,99.923-112.16,99.923
			S288.816,108.024,468.905,58.067C587.779,25.088,759.979,86.831,870.711,362.75z"/>
		<ellipse fill="#C9C8C8" cx="315.672" cy="263.977" rx="39.285" ry="39.367"/>
	</g>
</g>
</svg>
